<svg xmlns="http://www.w3.org/2000/svg" version="1.1" xmlns:xlink="http://www.w3.org/1999/xlink" xmlnsSvgjs="http://svgjs.dev/svgjs" width="2000" height="782" viewBox="0 0 2000 782"><g transform="matrix(1,0,0,1,-1.2121212121212466,-0.9329592572910883)"><svg viewBox="0 0 396 155" data-background-color="#ffffff" preserveAspectRatio="xMidYMid meet" height="782" width="2000" xmlns="http://www.w3.org/2000/svg" xmlnsXlink="http://www.w3.org/1999/xlink"><g id="tight-bounds" transform="matrix(1,0,0,1,0.2400000000000091,0.18492159191831092)"><svg viewBox="0 0 395.52 154.63015681616338" height="154.63015681616338" width="395.52"><g><svg viewBox="0 0 514.1268794968328 200.99999999999997" height="154.63015681616338" width="395.52"><g><rect width="8.528432438009052" height="200.99999999999997" x="198.38582986425345" y="0" fill="#4a596d" opacity="1" stroke-width="0" stroke="transparent" fill-opacity="1" class="rect-qz-0" data-fill-palette-color="primary" rx="1%" id="qz-0" data-palette-color="#4a596d"></rect></g><g transform="matrix(1,0,0,1,229.24000166877835,0.4999999999999858)"><svg viewBox="0 0 284.88687782805437 200" height="200" width="284.88687782805437"><g id="textblocktransform"><svg viewBox="0 0 284.88687782805437 200" height="200" width="284.88687782805437" id="textblock"><g><svg viewBox="0 0 284.88687782805437 200" height="200" width="284.88687782805437"><g transform="matrix(1,0,0,1,0,0)"><svg width="284.88687782805437" viewBox="-1.3000000000000007 -38.35 159.65000000000003 107.5" height="200" data-palette-color="#4a596d"><svg></svg><svg></svg><g class="wordmark-text-0" data-fill-palette-color="primary" id="text-0"><path d="M7.3-36h14.5c3.8 0 6.5 0.833 8.1 2.5v0c1.2 1.267 1.8 2.867 1.8 4.8v0c0 0.667-0.067 1.367-0.2 2.1v0l-0.7 3.9c-0.4 2.167-1.09 3.917-2.07 5.25-0.987 1.333-2.08 2.283-3.28 2.85v0l4.55 14.6h-10.1l-4.2-13.45h-3.1l-2.05 13.45h-9.6zM18.65-28.2v0h-3.75l-1.3 8.7h3.5c1.767 0 3.033-0.427 3.8-1.28 0.767-0.847 1.15-1.97 1.15-3.37v0c0-2.7-1.133-4.05-3.4-4.05zM44 0.7v0c-6.933 0-10.4-2.4-10.4-7.2v0c0-0.667 0.067-1.383 0.2-2.15v0l1.05-6.2c0.567-3.2 2.043-5.66 4.43-7.38 2.38-1.713 5.537-2.57 9.47-2.57v0c6.7 0 10.05 2.533 10.05 7.6v0c0 0.733-0.067 1.533-0.2 2.4v0l-0.6 3.55h-15.25l-0.2 1.15c-0.067 0.4-0.1 0.767-0.1 1.1v0c0 1.833 1.083 2.75 3.25 2.75v0c0.8 0 1.483-0.25 2.05-0.75 0.567-0.5 0.9-1.083 1-1.75v0l8.3 0.1c-1.1 6.233-5.45 9.35-13.05 9.35zM43.25-14.3h6.75c0.133-0.567 0.2-1.093 0.2-1.58 0-0.48-0.217-0.97-0.65-1.47-0.433-0.5-1.123-0.75-2.07-0.75-0.953 0-1.82 0.317-2.6 0.95-0.787 0.633-1.33 1.583-1.63 2.85zM71.6 0.7v0c-6.933 0-10.4-2.4-10.4-7.2v0c0-0.667 0.067-1.383 0.2-2.15v0l1.05-6.2c0.533-3.2 1.993-5.65 4.38-7.35 2.38-1.7 5.403-2.567 9.07-2.6v0c7.1 0 10.65 2.467 10.65 7.4v0c0 1.067-0.123 2.023-0.37 2.87-0.253 0.853-0.513 1.43-0.78 1.73v0l-0.4 0.5h-8.5c0.833-0.733 1.25-1.6 1.25-2.6v0c0-1.8-0.9-2.7-2.7-2.7v0c-1.067 0-1.983 0.317-2.75 0.95-0.767 0.633-1.267 1.6-1.5 2.9v0l-0.65 3.65c-0.067 0.333-0.1 0.65-0.1 0.95v0c0 1.767 1.1 2.65 3.3 2.65v0c0.733 0 1.393-0.233 1.98-0.7 0.58-0.467 0.92-0.983 1.02-1.55v0l8.3 0.1c-1.1 6.233-5.45 9.35-13.05 9.35zM99.55-6.4v0c0.767 0 1.45-0.167 2.05-0.5v0l-0.25 5.65c-1.567 1.3-3.35 1.95-5.35 1.95v0c-3.033 0-5-0.7-5.9-2.1v0c-0.6-0.933-0.9-1.927-0.9-2.98 0-1.047 0.067-1.97 0.2-2.77v0l3-16.9h8.5l-2.8 15.75c-0.033 0.2-0.05 0.383-0.05 0.55v0c0 0.9 0.5 1.35 1.5 1.35zM93.4-32.2v0c0-2.133 0.477-3.693 1.43-4.68 0.947-0.98 2.42-1.47 4.42-1.47v0c2.8 0 4.2 1.233 4.2 3.7v0c0 2.1-0.473 3.633-1.42 4.6-0.953 0.967-2.447 1.45-4.48 1.45v0c-2.767 0-4.15-1.2-4.15-3.6zM122-24.7v0c3.4 0 5.75 0.9 7.05 2.7v0c0.933 1.233 1.4 2.8 1.4 4.7v0c0 0.767-0.083 1.583-0.25 2.45v0l-1 5.85c-0.567 3.167-1.783 5.573-3.65 7.22-1.867 1.653-4.2 2.48-7 2.48-2.8 0-4.75-0.75-5.85-2.25v0l-2.7 15.45h-8.5l6.7-37.95h7.7l-0.25 1.35c1.567-1.333 3.683-2 6.35-2zM116.8-6.5v0c0.933 0 1.8-0.3 2.6-0.9 0.8-0.6 1.3-1.5 1.5-2.7v0l0.65-3.75c0.067-0.333 0.1-0.75 0.1-1.25 0-0.5-0.217-1.033-0.65-1.6-0.433-0.567-1.183-0.85-2.25-0.85v0c-1.733 0-2.867 0.417-3.4 1.25v0l-1.5 8.4c0.467 0.933 1.45 1.4 2.95 1.4zM143.55 0.7v0c-6.933 0-10.4-2.4-10.4-7.2v0c0-0.667 0.067-1.383 0.2-2.15v0l1.05-6.2c0.567-3.2 2.043-5.66 4.43-7.38 2.38-1.713 5.537-2.57 9.47-2.57v0c6.7 0 10.05 2.533 10.05 7.6v0c0 0.733-0.067 1.533-0.2 2.4v0l-0.6 3.55h-15.25l-0.2 1.15c-0.067 0.4-0.1 0.767-0.1 1.1v0c0 1.833 1.083 2.75 3.25 2.75v0c0.8 0 1.483-0.25 2.05-0.75 0.567-0.5 0.9-1.083 1-1.75v0l8.3 0.1c-1.1 6.233-5.45 9.35-13.05 9.35zM142.8-14.3h6.75c0.133-0.567 0.2-1.093 0.2-1.58 0-0.48-0.217-0.97-0.65-1.47-0.433-0.5-1.123-0.75-2.07-0.75-0.953 0-1.82 0.317-2.6 0.95-0.787 0.633-1.33 1.583-1.63 2.85z" fill="#4a596d" fill-rule="nonzero" stroke="none" stroke-width="1" stroke-linecap="butt" stroke-linejoin="miter" stroke-miterlimit="10" stroke-dasharray="" stroke-dashoffset="0" font-family="none" font-weight="none" font-size="none" text-anchor="none" style="mix-blend-mode: normal" data-fill-palette-color="primary" opacity="1"></path><path transform="translate(0,55.25)" d="M28.25 0h-9.5l0.3-7.85h-8.35l-2.45 7.85h-9.55l12.85-36h16.5zM19.85-27.25h-3.15l-3.95 12.7h6.55zM50.5-24.7v0c3.4 0 5.75 0.9 7.05 2.7v0c0.933 1.233 1.4 2.8 1.4 4.7v0c0 0.767-0.083 1.583-0.25 2.45v0l-1 5.85c-0.567 3.167-1.783 5.573-3.65 7.22-1.867 1.653-4.2 2.48-7 2.48-2.8 0-4.75-0.75-5.85-2.25v0l-2.7 15.45h-8.5l6.7-37.95h7.7l-0.25 1.35c1.567-1.333 3.683-2 6.35-2zM45.3-6.5v0c0.933 0 1.8-0.3 2.6-0.9 0.8-0.6 1.3-1.5 1.5-2.7v0l0.65-3.75c0.067-0.333 0.1-0.75 0.1-1.25 0-0.5-0.217-1.033-0.65-1.6-0.433-0.567-1.183-0.85-2.25-0.85v0c-1.733 0-2.867 0.417-3.4 1.25v0l-1.5 8.4c0.467 0.933 1.45 1.4 2.95 1.4zM79.3-24.7v0c3.4 0 5.75 0.9 7.05 2.7v0c0.933 1.233 1.4 2.8 1.4 4.7v0c0 0.767-0.083 1.583-0.25 2.45v0l-1 5.85c-0.567 3.167-1.783 5.573-3.65 7.22-1.867 1.653-4.2 2.48-7 2.48-2.8 0-4.75-0.75-5.85-2.25v0l-2.7 15.45h-8.5l6.7-37.95h7.7l-0.25 1.35c1.567-1.333 3.683-2 6.35-2zM74.1-6.5v0c0.933 0 1.8-0.3 2.6-0.9 0.8-0.6 1.3-1.5 1.5-2.7v0l0.65-3.75c0.067-0.333 0.1-0.75 0.1-1.25 0-0.5-0.217-1.033-0.65-1.6-0.433-0.567-1.183-0.85-2.25-0.85v0c-1.733 0-2.867 0.417-3.4 1.25v0l-1.5 8.4c0.467 0.933 1.45 1.4 2.95 1.4z" fill="#4a596d" fill-rule="nonzero" stroke="none" stroke-width="1" stroke-linecap="butt" stroke-linejoin="miter" stroke-miterlimit="10" stroke-dasharray="" stroke-dashoffset="0" font-family="none" font-weight="none" font-size="none" text-anchor="none" style="mix-blend-mode: normal" data-fill-palette-color="primary" opacity="1"></path></g></svg></g></svg></g></svg></g></svg></g><g transform="matrix(1,0,0,1,0,12.469974712588169)"><svg viewBox="0 0 176.0600904977376 176.06005057482363" height="176.06005057482363" width="176.0600904977376"><g><svg xmlns="http://www.w3.org/2000/svg" xmlnsXlink="http://www.w3.org/1999/xlink" version="1.1" x="0" y="0" viewBox="4.999979591836734 5 90.00002040816327 90" style="enable-background:new 0 0 100 100;" xml:space="preserve" height="176.06005057482363" width="176.0600904977376" class="icon-icon-0" data-fill-palette-color="accent" id="icon-0"><g fill="#4a596d" data-fill-palette-color="accent"><g fill="#4a596d" data-fill-palette-color="accent"><path d="M50 95c-13.1 0-23.6-4-31.3-11.8C4.9 69.3 5 48.4 5 47.5c0-0.7 0.6-1.2 1.2-1.2 0 0 0 0 0 0 0.7 0 1.2 0.6 1.2 1.2C7.5 56.3 27 63.7 50 63.7s42.5-7.4 42.5-16.2c0-0.7 0.6-1.2 1.2-1.2 0 0 0 0 0 0 0.7 0 1.2 0.5 1.2 1.2 0 0.9 0.1 21.8-13.7 35.7C73.6 91 63.1 95 50 95zM8.1 54.4c1.1 7.2 4.1 18.7 12.4 27.1 7.2 7.3 17.2 11 29.5 11 12.4 0 22.3-3.7 29.6-11 8.3-8.4 11.3-19.8 12.4-27C85.4 61.4 69.3 66.2 50 66.2 30.7 66.2 14.6 61.4 8.1 54.4z" fill="#4a596d" data-fill-palette-color="accent"></path></g><g fill="#4a596d" data-fill-palette-color="accent"><path d="M20.4 55L18 54.4c0-0.2 4.1-16.5 23.7-20.2l0.5 2.4C24.1 40 20.4 54.8 20.4 55z" fill="#4a596d" data-fill-palette-color="accent"></path></g><g fill="#4a596d" data-fill-palette-color="accent"><path d="M15.9 52.1l-2.5-0.4c1.5-10 11-14.6 11.4-14.8l1.1 2.2-0.5-1.1 0.5 1.1C25.8 39.3 17.2 43.5 15.9 52.1z" fill="#4a596d" data-fill-palette-color="accent"></path></g><g fill="#4a596d" data-fill-palette-color="accent"><path d="M48.8 60.2C46.2 47 34.4 47.1 33.9 47.1l0-2.5c0.1 0 14.3-0.1 17.3 15.1L48.8 60.2z" fill="#4a596d" data-fill-palette-color="accent"></path></g><g fill="#4a596d" data-fill-palette-color="accent"><path d="M39.9 59.7c-1-7.4-9.9-8.1-9.9-8.1l0.2-2.5c3.8 0.2 11.2 2.7 12.2 10.2L39.9 59.7z" fill="#4a596d" data-fill-palette-color="accent"></path></g><g fill="#4a596d" data-fill-palette-color="accent"><path d="M57.6 59.7C57 52.2 52.2 47.6 48.2 45l1.4-2.1c4.4 2.8 9.8 8 10.5 16.5L57.6 59.7z" fill="#4a596d" data-fill-palette-color="accent"></path></g><g fill="#4a596d" data-fill-palette-color="accent"><path d="M64.1 45.9l-1.8-1.8c0.3-0.3 6.5-6.3 18.6-5.1l-0.3 2.5C69.7 40.4 64.1 45.9 64.1 45.9z" fill="#4a596d" data-fill-palette-color="accent"></path></g><g fill="#4a596d" data-fill-palette-color="accent"><path d="M67.4 51.1l-2-1.4c0.2-0.3 5.7-8 22-5.6L87 46.5C72.2 44.4 67.4 51.1 67.4 51.1z" fill="#4a596d" data-fill-palette-color="accent"></path></g><g fill="#4a596d" data-fill-palette-color="accent"><path d="M68.9 57.5L67 55.9c0.3-0.3 7.2-8.4 19.4-6l-0.5 2.4C75.2 50.3 69 57.4 68.9 57.5z" fill="#4a596d" data-fill-palette-color="accent"></path></g><g fill="#4a596d" data-fill-palette-color="accent"><g fill="#4a596d" data-fill-palette-color="accent"><path d="M57.8 56c0 0-0.1 0-0.1 0-0.5 0-0.9-0.4-1.1-0.8-0.9-2.6-2.4-4.9-4.5-7-0.4-0.4-0.5-0.9-0.2-1.4L71.4 5.7c0.1-0.3 0.4-0.5 0.7-0.6 0.3-0.1 0.7-0.1 1 0.1l9.3 4.7c0.3 0.2 0.5 0.4 0.6 0.7 0.1 0.3 0.1 0.7-0.1 1l-24 43.8C58.7 55.8 58.3 56 57.8 56zM54.6 47.1c1.4 1.5 2.5 3.1 3.4 4.9l22.2-40.4-7-3.6L54.6 47.1z" fill="#4a596d" data-fill-palette-color="accent"></path></g></g><g fill="#4a596d" data-fill-palette-color="accent"><g fill="#4a596d" data-fill-palette-color="accent"><path d="M46.4 53.1c-0.4 0-0.7-0.2-1-0.5-1.6-2-3.7-3.5-6.3-4.5-0.6-0.2-0.9-0.9-0.8-1.5L48.8 5.9c0.1-0.3 0.3-0.6 0.6-0.8C49.7 5 50 5 50.4 5l10 2.9C60.7 8 61 8.2 61.1 8.5c0.2 0.3 0.2 0.6 0.1 1L47.6 52.2c-0.1 0.4-0.5 0.8-1 0.8C46.6 53.1 46.5 53.1 46.4 53.1zM41.1 46.2c1.8 0.8 3.4 1.9 4.8 3.2L58.4 9.9l-7.5-2.2L41.1 46.2z" fill="#4a596d" data-fill-palette-color="accent"></path></g></g><g fill="#4a596d" data-fill-palette-color="accent"><path d="M28.4 57.6l-2.4-0.5c1.5-6.9 6.6-13.1 14.8-17.9l1.3 2.1C36.7 44.5 30 49.8 28.4 57.6z" fill="#4a596d" data-fill-palette-color="accent"></path></g><g fill="#4a596d" data-fill-palette-color="accent"><path d="M66.9 58.5c-0.4-5-2-9.3-4.7-12.7l1.9-1.6c3.1 3.8 4.8 8.5 5.2 14L66.9 58.5z" fill="#4a596d" data-fill-palette-color="accent"></path></g><g fill="#4a596d" data-fill-palette-color="accent"><path d="M56.1 40.8c-2.1-1.2-4.1-1.8-5.4-2.2l0.6-2.4c2.1 0.6 4.1 1.4 6 2.4L56.1 40.8z" fill="#4a596d" data-fill-palette-color="accent"></path></g><g fill="#4a596d" data-fill-palette-color="accent"><path d="M58.7 36.7C58.7 36.7 58.6 36.7 58.7 36.7c-2.3-0.2-4.6-0.3-7-0.3-0.4 0-0.8-0.2-1-0.5-0.2-0.3-0.3-0.7-0.2-1.1l1.6-5c0.2-0.5 0.7-0.9 1.2-0.9 2.7 0.1 5.3 0.2 7.7 0.5 0.4 0 0.8 0.3 1 0.6 0.2 0.4 0.2 0.8 0 1.1L59.8 36C59.6 36.4 59.2 36.7 58.7 36.7zM53.4 33.9c1.5 0 3 0.1 4.5 0.2l1.2-2.4c-1.6-0.1-3.2-0.2-4.9-0.3L53.4 33.9z" fill="#4a596d" data-fill-palette-color="accent"></path></g><g fill="#4a596d" data-fill-palette-color="accent"><path d="M50 66.2C24.8 66.2 5 58 5 47.5 5 38.1 21.3 30.3 43.8 29c0.4 0 0.8 0.1 1 0.5 0.3 0.3 0.3 0.7 0.2 1.1l-1.3 5.1c-0.1 0.5-0.6 0.9-1.1 0.9-18.3 1.2-29.2 6.5-29.2 10.9 0 5.3 15 11.1 36.5 11.1s36.5-5.9 36.5-11.1c0-3.8-7.6-7.7-19-9.7-0.4-0.1-0.7-0.3-0.9-0.7-0.2-0.4-0.2-0.8 0-1.1l2.5-4.5c0.3-0.5 0.8-0.7 1.3-0.6C85.6 34 95 40.4 95 47.5 95 58 75.2 66.2 50 66.2zM42.3 31.6C22.6 33.1 7.5 39.9 7.5 47.5 7.5 56.3 27 63.7 50 63.7s42.5-7.4 42.5-16.2c0-5.7-8.5-11.1-21.6-14l-1.2 2.2C81.8 38.1 89 42.5 89 47.5c0 3.9-4.1 7.4-11.9 9.9-7.3 2.4-16.9 3.7-27.1 3.7s-19.8-1.3-27.1-3.7c-7.8-2.6-11.9-6-11.9-9.9 0-7.7 15.2-12.2 30.6-13.3L42.3 31.6z" fill="#4a596d" data-fill-palette-color="accent"></path></g><g fill="#4a596d" data-fill-palette-color="accent"><g fill="#4a596d" data-fill-palette-color="accent"><circle cx="50.1" cy="78.3" r="4.5" fill="#4a596d" data-fill-palette-color="accent"></circle></g><g fill="#4a596d" data-fill-palette-color="accent"><path d="M93.8 47.5c0 9.6-19.6 17.4-43.8 17.4S6.2 57.1 6.2 47.5c0 0-0.5 46.2 43.8 46.2S93.8 47.5 93.8 47.5zM50.1 85.2c-3.8 0-6.9-3.1-6.9-6.9 0-3.8 3.1-6.9 6.9-6.9s6.9 3.1 6.9 6.9C57 82.1 53.9 85.2 50.1 85.2z" fill="#4a596d" data-fill-palette-color="accent"></path></g></g></g></svg></g></svg></g></svg></g><defs></defs></svg><rect width="395.52" height="154.63015681616338" fill="none" stroke="none" visibility="hidden"></rect></g></svg></g></svg>