<svg xmlns="http://www.w3.org/2000/svg" version="1.1" xmlns:xlink="http://www.w3.org/1999/xlink" xmlns:svgjs="http://svgjs.dev/svgjs" width="128" height="128" viewBox="0 0 128 128"><g transform="matrix(0.8046875,0,0,0.8046875,12.760752631578946,12.760740894449498)"><svg viewBox="0 0 95 95" data-background-color="#ffffff" preserveAspectRatio="xMidYMid meet" height="128" width="128" xmlns="http://www.w3.org/2000/svg" xmlns:xlink="http://www.w3.org/1999/xlink"><g id="tight-bounds" transform="matrix(1,0,0,1,-0.24049999999999727,-0.2404891744922537)"><svg viewBox="0 0 95.481 95.4809783489845" height="95.4809783489845" width="95.481"><g><svg viewBox="0 0 95.481 95.4809783489845" height="95.4809783489845" width="95.481"><g><svg viewBox="0 0 95.481 95.4809783489845" height="95.4809783489845" width="95.481"><g id="textblocktransform"><svg viewBox="0 0 95.481 95.4809783489845" height="95.4809783489845" width="95.481" id="textblock"><g><svg viewBox="0 0 95.481 95.4809783489845" height="95.4809783489845" width="95.481"><g><svg viewBox="0 0 95.481 95.4809783489845" height="95.4809783489845" width="95.481"><g><svg xmlns="http://www.w3.org/2000/svg" xmlns:xlink="http://www.w3.org/1999/xlink" version="1.1" x="0" y="0" viewBox="4.999979591836734 5 90.00002040816327 90" style="enable-background:new 0 0 100 100;" xml:space="preserve" height="95.4809783489845" width="95.481" class="icon-icon-0" data-fill-palette-color="accent" id="icon-0"><g fill="#4a596d" data-fill-palette-color="accent"><g fill="#4a596d" data-fill-palette-color="accent"><path d="M50 95c-13.1 0-23.6-4-31.3-11.8C4.9 69.3 5 48.4 5 47.5c0-0.7 0.6-1.2 1.2-1.2 0 0 0 0 0 0 0.7 0 1.2 0.6 1.2 1.2C7.5 56.3 27 63.7 50 63.7s42.5-7.4 42.5-16.2c0-0.7 0.6-1.2 1.2-1.2 0 0 0 0 0 0 0.7 0 1.2 0.5 1.2 1.2 0 0.9 0.1 21.8-13.7 35.7C73.6 91 63.1 95 50 95zM8.1 54.4c1.1 7.2 4.1 18.7 12.4 27.1 7.2 7.3 17.2 11 29.5 11 12.4 0 22.3-3.7 29.6-11 8.3-8.4 11.3-19.8 12.4-27C85.4 61.4 69.3 66.2 50 66.2 30.7 66.2 14.6 61.4 8.1 54.4z" fill="#ffffff" data-fill-palette-color="accent"></path></g><g fill="#4a596d" data-fill-palette-color="accent"><path d="M20.4 55L18 54.4c0-0.2 4.1-16.5 23.7-20.2l0.5 2.4C24.1 40 20.4 54.8 20.4 55z" fill="#ffffff" data-fill-palette-color="accent"></path></g><g fill="#4a596d" data-fill-palette-color="accent"><path d="M15.9 52.1l-2.5-0.4c1.5-10 11-14.6 11.4-14.8l1.1 2.2-0.5-1.1 0.5 1.1C25.8 39.3 17.2 43.5 15.9 52.1z" fill="#ffffff" data-fill-palette-color="accent"></path></g><g fill="#4a596d" data-fill-palette-color="accent"><path d="M48.8 60.2C46.2 47 34.4 47.1 33.9 47.1l0-2.5c0.1 0 14.3-0.1 17.3 15.1L48.8 60.2z" fill="#ffffff" data-fill-palette-color="accent"></path></g><g fill="#4a596d" data-fill-palette-color="accent"><path d="M39.9 59.7c-1-7.4-9.9-8.1-9.9-8.1l0.2-2.5c3.8 0.2 11.2 2.7 12.2 10.2L39.9 59.7z" fill="#ffffff" data-fill-palette-color="accent"></path></g><g fill="#4a596d" data-fill-palette-color="accent"><path d="M57.6 59.7C57 52.2 52.2 47.6 48.2 45l1.4-2.1c4.4 2.8 9.8 8 10.5 16.5L57.6 59.7z" fill="#ffffff" data-fill-palette-color="accent"></path></g><g fill="#4a596d" data-fill-palette-color="accent"><path d="M64.1 45.9l-1.8-1.8c0.3-0.3 6.5-6.3 18.6-5.1l-0.3 2.5C69.7 40.4 64.1 45.9 64.1 45.9z" fill="#ffffff" data-fill-palette-color="accent"></path></g><g fill="#4a596d" data-fill-palette-color="accent"><path d="M67.4 51.1l-2-1.4c0.2-0.3 5.7-8 22-5.6L87 46.5C72.2 44.4 67.4 51.1 67.4 51.1z" fill="#ffffff" data-fill-palette-color="accent"></path></g><g fill="#4a596d" data-fill-palette-color="accent"><path d="M68.9 57.5L67 55.9c0.3-0.3 7.2-8.4 19.4-6l-0.5 2.4C75.2 50.3 69 57.4 68.9 57.5z" fill="#ffffff" data-fill-palette-color="accent"></path></g><g fill="#4a596d" data-fill-palette-color="accent"><g fill="#4a596d" data-fill-palette-color="accent"><path d="M57.8 56c0 0-0.1 0-0.1 0-0.5 0-0.9-0.4-1.1-0.8-0.9-2.6-2.4-4.9-4.5-7-0.4-0.4-0.5-0.9-0.2-1.4L71.4 5.7c0.1-0.3 0.4-0.5 0.7-0.6 0.3-0.1 0.7-0.1 1 0.1l9.3 4.7c0.3 0.2 0.5 0.4 0.6 0.7 0.1 0.3 0.1 0.7-0.1 1l-24 43.8C58.7 55.8 58.3 56 57.8 56zM54.6 47.1c1.4 1.5 2.5 3.1 3.4 4.9l22.2-40.4-7-3.6L54.6 47.1z" fill="#ffffff" data-fill-palette-color="accent"></path></g></g><g fill="#4a596d" data-fill-palette-color="accent"><g fill="#4a596d" data-fill-palette-color="accent"><path d="M46.4 53.1c-0.4 0-0.7-0.2-1-0.5-1.6-2-3.7-3.5-6.3-4.5-0.6-0.2-0.9-0.9-0.8-1.5L48.8 5.9c0.1-0.3 0.3-0.6 0.6-0.8C49.7 5 50 5 50.4 5l10 2.9C60.7 8 61 8.2 61.1 8.5c0.2 0.3 0.2 0.6 0.1 1L47.6 52.2c-0.1 0.4-0.5 0.8-1 0.8C46.6 53.1 46.5 53.1 46.4 53.1zM41.1 46.2c1.8 0.8 3.4 1.9 4.8 3.2L58.4 9.9l-7.5-2.2L41.1 46.2z" fill="#ffffff" data-fill-palette-color="accent"></path></g></g><g fill="#4a596d" data-fill-palette-color="accent"><path d="M28.4 57.6l-2.4-0.5c1.5-6.9 6.6-13.1 14.8-17.9l1.3 2.1C36.7 44.5 30 49.8 28.4 57.6z" fill="#ffffff" data-fill-palette-color="accent"></path></g><g fill="#4a596d" data-fill-palette-color="accent"><path d="M66.9 58.5c-0.4-5-2-9.3-4.7-12.7l1.9-1.6c3.1 3.8 4.8 8.5 5.2 14L66.9 58.5z" fill="#ffffff" data-fill-palette-color="accent"></path></g><g fill="#4a596d" data-fill-palette-color="accent"><path d="M56.1 40.8c-2.1-1.2-4.1-1.8-5.4-2.2l0.6-2.4c2.1 0.6 4.1 1.4 6 2.4L56.1 40.8z" fill="#ffffff" data-fill-palette-color="accent"></path></g><g fill="#4a596d" data-fill-palette-color="accent"><path d="M58.7 36.7C58.7 36.7 58.6 36.7 58.7 36.7c-2.3-0.2-4.6-0.3-7-0.3-0.4 0-0.8-0.2-1-0.5-0.2-0.3-0.3-0.7-0.2-1.1l1.6-5c0.2-0.5 0.7-0.9 1.2-0.9 2.7 0.1 5.3 0.2 7.7 0.5 0.4 0 0.8 0.3 1 0.6 0.2 0.4 0.2 0.8 0 1.1L59.8 36C59.6 36.4 59.2 36.7 58.7 36.7zM53.4 33.9c1.5 0 3 0.1 4.5 0.2l1.2-2.4c-1.6-0.1-3.2-0.2-4.9-0.3L53.4 33.9z" fill="#ffffff" data-fill-palette-color="accent"></path></g><g fill="#4a596d" data-fill-palette-color="accent"><path d="M50 66.2C24.8 66.2 5 58 5 47.5 5 38.1 21.3 30.3 43.8 29c0.4 0 0.8 0.1 1 0.5 0.3 0.3 0.3 0.7 0.2 1.1l-1.3 5.1c-0.1 0.5-0.6 0.9-1.1 0.9-18.3 1.2-29.2 6.5-29.2 10.9 0 5.3 15 11.1 36.5 11.1s36.5-5.9 36.5-11.1c0-3.8-7.6-7.7-19-9.7-0.4-0.1-0.7-0.3-0.9-0.7-0.2-0.4-0.2-0.8 0-1.1l2.5-4.5c0.3-0.5 0.8-0.7 1.3-0.6C85.6 34 95 40.4 95 47.5 95 58 75.2 66.2 50 66.2zM42.3 31.6C22.6 33.1 7.5 39.9 7.5 47.5 7.5 56.3 27 63.7 50 63.7s42.5-7.4 42.5-16.2c0-5.7-8.5-11.1-21.6-14l-1.2 2.2C81.8 38.1 89 42.5 89 47.5c0 3.9-4.1 7.4-11.9 9.9-7.3 2.4-16.9 3.7-27.1 3.7s-19.8-1.3-27.1-3.7c-7.8-2.6-11.9-6-11.9-9.9 0-7.7 15.2-12.2 30.6-13.3L42.3 31.6z" fill="#ffffff" data-fill-palette-color="accent"></path></g><g fill="#4a596d" data-fill-palette-color="accent"><g fill="#4a596d" data-fill-palette-color="accent"><circle cx="50.1" cy="78.3" r="4.5" fill="#ffffff" data-fill-palette-color="accent"></circle></g><g fill="#4a596d" data-fill-palette-color="accent"><path d="M93.8 47.5c0 9.6-19.6 17.4-43.8 17.4S6.2 57.1 6.2 47.5c0 0-0.5 46.2 43.8 46.2S93.8 47.5 93.8 47.5zM50.1 85.2c-3.8 0-6.9-3.1-6.9-6.9 0-3.8 3.1-6.9 6.9-6.9s6.9 3.1 6.9 6.9C57 82.1 53.9 85.2 50.1 85.2z" fill="#ffffff" data-fill-palette-color="accent"></path></g></g></g></svg></g></svg></g></svg></g></svg></g></svg></g></svg></g><defs></defs></svg><rect width="95.481" height="95.4809783489845" fill="none" stroke="none" visibility="hidden"></rect></g></svg></g></svg>